<?xml version="1.0" encoding="UTF-8" standalone="no"?>
<!-- Created with Inkscape (http://www.inkscape.org/) -->

<svg
   width="225.77777mm"
   height="225.77777mm"
   viewBox="0 0 225.77777 225.77777"
   version="1.1"
   id="svg5"
   xml:space="preserve"
   inkscape:version="1.2-rc (6364d40632, 2022-05-08)"
   sodipodi:docname="default.svg"
   xmlns:inkscape="http://www.inkscape.org/namespaces/inkscape"
   xmlns:sodipodi="http://sodipodi.sourceforge.net/DTD/sodipodi-0.dtd"
   xmlns="http://www.w3.org/2000/svg"
   xmlns:svg="http://www.w3.org/2000/svg"><sodipodi:namedview
     id="namedview7"
     pagecolor="#ffffff"
     bordercolor="#999999"
     borderopacity="1"
     inkscape:showpageshadow="0"
     inkscape:pageopacity="0"
     inkscape:pagecheckerboard="0"
     inkscape:deskcolor="#d1d1d1"
     inkscape:document-units="mm"
     showgrid="false"
     inkscape:zoom="0.76969697"
     inkscape:cx="-120.82677"
     inkscape:cy="473.56299"
     inkscape:window-width="1920"
     inkscape:window-height="1051"
     inkscape:window-x="-9"
     inkscape:window-y="-9"
     inkscape:window-maximized="1"
     inkscape:current-layer="layer1" /><defs
     id="defs2" /><g
     inkscape:label="Capa 1"
     inkscape:groupmode="layer"
     id="layer1"
     transform="translate(8.0451355,-23.579865)"><path
       style="fill:#000000;stroke-width:0.352778"
       id="path861"
       d="" /><path
       style="fill:#000000;stroke-width:0.352778"
       id="path859"
       d="" /><path
       style="fill:#adb3b7;stroke:none;stroke-width:0.352778"
       d="m 100.15485,34.887431 c -6.304837,0.858308 -12.229386,2.890661 -17.638881,6.280855 -33.168165,20.787782 -26.632604,77.053324 11.994444,87.353374 4.850337,1.29328 10.533937,1.62454 15.522217,1.01212 4.93078,-0.60572 9.68904,-2.15689 14.11111,-4.39914 36.05177,-18.28095 31.7874,-78.80204 -8.46666,-89.116556 -4.94348,-1.266825 -10.43764,-1.822803 -15.52223,-1.130653 M 16.193749,193.48745 H 193.28818 c -1.34267,-7.23124 -2.53611,-13.87581 -6.10623,-20.46111 -6.51404,-12.01597 -17.33585,-21.12434 -29.17154,-27.62462 -27.30959,-14.99799 -61.729758,-16.5922 -91.016662,-6.83013 -23.342599,7.78087 -50.724539,27.5777 -50.799999,54.91586 z"
       id="path879" /></g></svg>
