<?xml version="1.0" encoding="UTF-8" standalone="no"?>
<!-- Created with Inkscape (http://www.inkscape.org/) -->

<svg
   width="135.39389mm"
   height="135.38617mm"
   viewBox="0 0 135.39389 135.38617"
   version="1.1"
   id="svg1373"
   xml:space="preserve"
   inkscape:version="1.2-rc (6364d40632, 2022-05-08)"
   sodipodi:docname="add.svg"
   xmlns:inkscape="http://www.inkscape.org/namespaces/inkscape"
   xmlns:sodipodi="http://sodipodi.sourceforge.net/DTD/sodipodi-0.dtd"
   xmlns="http://www.w3.org/2000/svg"
   xmlns:svg="http://www.w3.org/2000/svg"><sodipodi:namedview
     id="namedview1375"
     pagecolor="#ffffff"
     bordercolor="#999999"
     borderopacity="1"
     inkscape:showpageshadow="0"
     inkscape:pageopacity="0"
     inkscape:pagecheckerboard="0"
     inkscape:deskcolor="#d1d1d1"
     inkscape:document-units="mm"
     showgrid="false"
     inkscape:zoom="0.76969697"
     inkscape:cx="105.88583"
     inkscape:cy="359.23228"
     inkscape:window-width="1920"
     inkscape:window-height="1051"
     inkscape:window-x="-9"
     inkscape:window-y="-9"
     inkscape:window-maximized="1"
     inkscape:current-layer="layer1" /><defs
     id="defs1370" /><g
     inkscape:label="Capa 1"
     inkscape:groupmode="layer"
     id="layer1"
     transform="translate(-26.146802,-53.646802)"><path
       style="fill:#000000;stroke-width:0.264583"
       d="m 91.48513,188.62276 c -0.642398,-0.22689 -1.6656,-0.91014 -2.273782,-1.51832 -2.101487,-2.10149 -1.982181,-0.21084 -1.982181,-31.41199 V 127.95833 H 59.495051 c -31.193403,0 -29.311309,0.1185 -31.407219,-1.97741 -2.58804,-2.58804 -2.58804,-6.6863 0,-9.27434 2.09591,-2.09591 0.213816,-1.97741 31.407219,-1.97741 H 87.229167 V 86.995051 c 0,-31.193403 -0.118496,-29.311309 1.977411,-31.407219 2.58804,-2.58804 6.686304,-2.58804 9.274344,0 2.095908,2.09591 1.977408,0.213816 1.977408,31.407219 v 27.734119 h 27.73412 c 31.1934,0 29.31131,-0.1185 31.40722,1.97741 2.58804,2.58804 2.58804,6.6863 0,9.27434 -2.09591,2.09591 -0.21382,1.97741 -31.40722,1.97741 h -27.73412 v 27.73412 c 0,31.1934 0.1185,29.31131 -1.977408,31.40722 -1.835782,1.83578 -4.480377,2.41155 -6.995792,1.52309 z"
       id="path1869" /></g></svg>
