<?xml version="1.0" encoding="UTF-8" standalone="no"?>
<!-- Created with Inkscape (http://www.inkscape.org/) -->

<svg
   width="5.7591801mm"
   height="7.2047334mm"
   viewBox="0 0 5.7591801 7.2047334"
   version="1.1"
   id="svg5"
   xml:space="preserve"
   inkscape:version="1.2-rc (6364d40632, 2022-05-08)"
   sodipodi:docname="bin.svg"
   xmlns:inkscape="http://www.inkscape.org/namespaces/inkscape"
   xmlns:sodipodi="http://sodipodi.sourceforge.net/DTD/sodipodi-0.dtd"
   xmlns="http://www.w3.org/2000/svg"
   xmlns:svg="http://www.w3.org/2000/svg"><sodipodi:namedview
     id="namedview7"
     pagecolor="#ffffff"
     bordercolor="#999999"
     borderopacity="1"
     inkscape:showpageshadow="0"
     inkscape:pageopacity="0"
     inkscape:pagecheckerboard="0"
     inkscape:deskcolor="#d1d1d1"
     inkscape:document-units="mm"
     showgrid="false"
     inkscape:zoom="6.1575757"
     inkscape:cx="-28.014272"
     inkscape:cy="5.6028543"
     inkscape:window-width="1920"
     inkscape:window-height="1051"
     inkscape:window-x="-9"
     inkscape:window-y="-9"
     inkscape:window-maximized="1"
     inkscape:current-layer="layer1" /><defs
     id="defs2" /><g
     inkscape:label="Capa 1"
     inkscape:groupmode="layer"
     id="layer1"
     transform="translate(-101.74938,-116.7113)"><path
       style=""
       d="m 102.94821,123.90657 c -0.31818,-0.0545 -0.59154,-0.26066 -0.73795,-0.55651 -0.1107,-0.2237 -0.10392,-0.0565 -0.1042,-2.56889 l -2.4e-4,-2.2447 h 2.52333 2.52334 l -0.004,2.28699 c -0.004,2.18344 -0.005,2.29047 -0.0299,2.36399 -0.11824,0.34879 -0.34637,0.5771 -0.69276,0.69333 l -0.0987,0.0331 -1.65622,0.002 c -0.91092,0.001 -1.68626,-0.003 -1.72298,-0.009 z m 0.45056,-0.6838 c 0.0861,-0.036 0.14608,-0.0912 0.1814,-0.16706 l 0.0336,-0.0721 1.4e-4,-1.75886 c 1.6e-4,-1.94127 0.006,-1.81178 -0.0887,-1.91071 -0.16268,-0.16972 -0.42496,-0.13549 -0.53896,0.0703 l -0.0418,0.0754 v 1.75488 c 0,1.441 0.003,1.76456 0.0191,1.80895 0.0591,0.16724 0.27507,0.26611 0.43516,0.19922 z m 1.36518,-0.005 c 0.0316,-0.0144 0.0805,-0.0498 0.10861,-0.0787 0.10097,-0.10397 0.0955,0.0124 0.0913,-1.93914 l -0.004,-1.75412 -0.0309,-0.0577 c -0.043,-0.0803 -0.11776,-0.14158 -0.20405,-0.16721 -0.0907,-0.0269 -0.1019,-0.0269 -0.19262,0 -0.0863,0.0256 -0.16108,0.0869 -0.20405,0.16721 l -0.0309,0.0577 v 1.77603 c 0,1.68065 10e-4,1.77876 0.0253,1.82688 0.0348,0.0699 0.10465,0.13868 0.17202,0.16945 0.0736,0.0336 0.19451,0.0334 0.26895,-3.8e-4 z m 1.35213,-0.006 c 0.082,-0.0382 0.15097,-0.11084 0.17812,-0.18766 0.0157,-0.0444 0.0191,-0.36795 0.0191,-1.80895 v -1.75488 l -0.0418,-0.0754 c -0.114,-0.20582 -0.37629,-0.24005 -0.53897,-0.0703 -0.0948,0.0989 -0.0888,-0.0306 -0.0887,1.91071 l 1.4e-4,1.75886 0.0336,0.0721 c 0.0763,0.1639 0.27164,0.23317 0.43844,0.1555 z m -4.35795,-5.11522 c 0.0409,-0.47285 0.37533,-0.87494 0.84231,-1.01261 0.0863,-0.0254 0.15146,-0.0319 0.3753,-0.0374 l 0.27087,-0.007 0.0347,-0.0592 c 0.0501,-0.0856 0.15155,-0.1732 0.2597,-0.22444 l 0.0941,-0.0446 h 0.99373 0.99373 l 0.0941,0.0446 c 0.10815,0.0512 0.20956,0.13888 0.2597,0.22444 l 0.0347,0.0592 0.27087,0.007 c 0.22384,0.005 0.289,0.0119 0.37531,0.0374 0.46698,0.13767 0.80144,0.53976 0.84231,1.01261 l 0.009,0.10219 h -2.87958 -2.8796 z"
       id="path749" /></g></svg>
