<?xml version="1.0" encoding="UTF-8" standalone="no"?>
<!-- Created with Inkscape (http://www.inkscape.org/) -->

<svg
   width="180.5412mm"
   height="180.14992mm"
   viewBox="0 0 180.5412 180.14992"
   version="1.1"
   id="svg867"
   xml:space="preserve"
   inkscape:version="1.2-rc (6364d40632, 2022-05-08)"
   sodipodi:docname="edit.svg"
   xmlns:inkscape="http://www.inkscape.org/namespaces/inkscape"
   xmlns:sodipodi="http://sodipodi.sourceforge.net/DTD/sodipodi-0.dtd"
   xmlns="http://www.w3.org/2000/svg"
   xmlns:svg="http://www.w3.org/2000/svg"><sodipodi:namedview
     id="namedview869"
     pagecolor="#ffffff"
     bordercolor="#999999"
     borderopacity="1"
     inkscape:showpageshadow="0"
     inkscape:pageopacity="0"
     inkscape:pagecheckerboard="0"
     inkscape:deskcolor="#d1d1d1"
     inkscape:document-units="mm"
     showgrid="false"
     inkscape:zoom="0.76969697"
     inkscape:cx="338.44488"
     inkscape:cy="352.73622"
     inkscape:window-width="1920"
     inkscape:window-height="1051"
     inkscape:window-x="-9"
     inkscape:window-y="-9"
     inkscape:window-maximized="1"
     inkscape:current-layer="layer1" /><defs
     id="defs864" /><g
     inkscape:label="Capa 1"
     inkscape:groupmode="layer"
     id="layer1"
     transform="translate(-13.197024,-55.558002)"><path
       style="fill:#000000;stroke-width:0.352778"
       d="m 29.59993,235.18042 c -6.13755,-1.68518 -11.64309,-6.45793 -14.40858,-12.49079 -2.142002,-4.67273 -2.055271,-1.87709 -1.951876,-62.91562 l 0.09455,-55.81915 0.827548,-2.46944 C 16.66596,94.012197 22.55071,88.386716 30.09097,86.257829 c 2.14975,-0.606953 4.34339,-0.647413 35.10139,-0.647413 h 32.80833 l 1.66632,0.979515 c 2.9685,1.744978 4.36776,5.263858 3.42793,8.620599 -0.58537,2.090737 -2.77232,4.358488 -4.7824,4.95908 -1.10148,0.32912 -9.00374,0.43386 -32.73147,0.43386 -34.20994,0 -32.65179,-0.0914 -34.90505,2.04719 -0.55134,0.52328 -1.30688,1.5433 -1.67897,2.26671 -0.65951,1.2822 -0.67422,2.69903 -0.58505,56.32591 l 0.0915,55.01061 1.05833,1.50257 c 0.58208,0.82641 1.75799,1.87194 2.61313,2.3234 l 1.55479,0.82083 h 54.63912 c 53.07268,0 54.67664,-0.0193 55.94798,-0.67325 0.71988,-0.37028 1.737,-1.12434 2.26029,-1.67569 2.13857,-2.25326 2.04718,-0.6951 2.04718,-34.90505 0,-23.72773 0.10475,-31.62999 0.43386,-32.73147 0.6006,-2.01007 2.86835,-4.19703 4.95909,-4.7824 3.47696,-0.97349 7.0922,0.5547 8.69885,3.67707 l 0.90126,1.75151 v 32.64117 c 0,30.51039 -0.0419,32.78901 -0.64256,34.90602 -1.12515,3.9658 -2.99171,7.16611 -5.92221,10.15389 -2.52147,2.57075 -5.216,4.28324 -8.58479,5.45601 l -2.84211,0.98942 -57.14999,-0.0268 c -46.67898,-0.0219 -57.4662,-0.11366 -58.87577,-0.50069 z M 79.0657,171.26058 c -1.04091,-0.64575 -1.70251,-1.82784 -1.70251,-3.0419 0,-1.11855 5.21155,-27.03372 5.65416,-28.11612 0.20106,-0.49169 13.8543,-14.38201 30.34052,-30.86738 l 29.97496,-29.973401 13.31658,13.316584 13.31659,13.316577 -29.97341,29.97496 c -16.48536,16.48623 -30.37569,30.13946 -30.86737,30.34052 -1.17164,0.4791 -27.05825,5.65697 -28.22092,5.64477 -0.4924,-0.005 -1.31977,-0.27273 -1.8386,-0.59461 z m 85.43479,-86.70731 -13.22445,-13.22798 5.64149,-5.664875 c 3.10282,-3.115682 6.594,-6.294917 7.75816,-7.064969 9.30956,-6.157913 22.2996,-2.59142 27.08302,7.435804 2.11213,4.427531 2.5031,8.233265 1.32077,12.856172 -1.10972,4.338938 -2.34934,6.112324 -8.95322,12.808411 -3.30089,3.346979 -6.09155,6.085417 -6.20147,6.085417 -0.10992,0 -6.15085,-5.952593 -13.4243,-13.22798 z"
       id="path1363" /></g></svg>
