<?xml version="1.0" encoding="UTF-8" standalone="no"?>
<!-- Created with Inkscape (http://www.inkscape.org/) -->

<svg
   width="180.10345mm"
   height="180.58875mm"
   viewBox="0 0 180.10345 180.58875"
   version="1.1"
   id="svg1879"
   xml:space="preserve"
   inkscape:version="1.2-rc (6364d40632, 2022-05-08)"
   sodipodi:docname="exit.svg"
   xmlns:inkscape="http://www.inkscape.org/namespaces/inkscape"
   xmlns:sodipodi="http://sodipodi.sourceforge.net/DTD/sodipodi-0.dtd"
   xmlns="http://www.w3.org/2000/svg"
   xmlns:svg="http://www.w3.org/2000/svg"><sodipodi:namedview
     id="namedview1881"
     pagecolor="#ffffff"
     bordercolor="#999999"
     borderopacity="1"
     inkscape:showpageshadow="0"
     inkscape:pageopacity="0"
     inkscape:pagecheckerboard="0"
     inkscape:deskcolor="#d1d1d1"
     inkscape:document-units="mm"
     showgrid="false"
     inkscape:zoom="0.76969697"
     inkscape:cx="140.96457"
     inkscape:cy="370.9252"
     inkscape:window-width="1920"
     inkscape:window-height="1051"
     inkscape:window-x="-9"
     inkscape:window-y="-9"
     inkscape:window-maximized="1"
     inkscape:current-layer="layer1" /><defs
     id="defs1876" /><g
     inkscape:label="Capa 1"
     inkscape:groupmode="layer"
     id="layer1"
     transform="translate(-16.937152,-50.619566)"><path
       style=""
       d="m 40.641852,230.85312 c -5.797122,-0.96392 -10.839128,-3.62065 -15.258462,-8.03998 -4.533462,-4.53347 -7.064664,-9.41878 -8.058616,-15.55342 -0.516829,-3.18986 -0.516829,-129.454588 0,-132.644442 0.993952,-6.134644 3.525154,-11.019952 8.058616,-15.553415 4.533464,-4.533463 9.418772,-7.064665 15.553415,-8.058617 3.157412,-0.511573 76.217585,-0.511573 79.374995,0 6.13465,0.993952 11.01996,3.525154 15.55342,8.058617 3.4082,3.408195 5.48551,6.647854 6.80618,10.614526 1.37221,4.121463 1.62376,6.583928 1.62663,15.92291 l 0.003,8.690967 -0.98226,1.880249 c -0.79516,1.522126 -1.34037,2.067337 -2.8625,2.862505 -2.40173,1.25468 -4.01986,1.25468 -6.42159,0 -1.52212,-0.795168 -2.06733,-1.340379 -2.8625,-2.862505 l -0.98242,-1.880249 v -8.232631 c 0,-4.751929 -0.1677,-9.023019 -0.39665,-10.102077 -1.14537,-5.39816 -5.42325,-9.676031 -10.82141,-10.821402 -2.63421,-0.558924 -74.060216,-0.558924 -76.694434,0 -5.398161,1.145371 -9.676031,5.423242 -10.821403,10.821402 -0.563536,2.655963 -0.563536,127.307922 0,129.963882 1.145372,5.39816 5.423242,9.67603 10.821403,10.8214 2.634218,0.55893 74.060224,0.55893 76.694434,0 5.39816,-1.14537 9.67604,-5.42324 10.82141,-10.8214 0.22895,-1.07906 0.39665,-5.35015 0.39665,-10.10208 v -8.23263 l 0.98226,-1.88025 c 0.79517,-1.52212 1.34038,-2.06733 2.8625,-2.8625 2.40173,-1.25468 4.01987,-1.25468 6.42159,0 1.52213,0.79517 2.06734,1.34038 2.86251,2.8625 l 0.98225,1.88025 -0.003,8.69097 c -0.003,9.33898 -0.25442,11.80145 -1.62663,15.92291 -1.32067,3.96667 -3.39798,7.20633 -6.80618,10.61453 -4.53346,4.53346 -9.41877,7.06466 -15.55341,8.05861 -2.84111,0.46033 -76.893619,0.44301 -79.669956,-0.0186 z M 168.81875,170.96035 c -1.64244,-0.76043 -3.14828,-2.26379 -3.68172,-3.67568 -0.48005,-1.27053 -0.48289,-4.13992 -0.005,-5.42212 0.20342,-0.54621 3.17833,-3.81092 6.61091,-7.25491 l 6.24106,-6.26181 H 134.90051 91.817386 l -1.880249,-0.98225 c -1.522127,-0.79517 -2.067338,-1.34038 -2.862506,-2.86251 -1.254679,-2.40173 -1.254679,-4.01986 0,-6.42159 0.795168,-1.52212 1.340379,-2.06733 2.862506,-2.8625 l 1.880235,-0.98226 h 43.083128 43.08312 l -6.24106,-6.2618 c -3.43259,-3.444 -6.4075,-6.70871 -6.61091,-7.25491 -0.47751,-1.28221 -0.47467,-4.15159 0.005,-5.42213 0.82703,-2.18892 3.85426,-4.32223 6.15117,-4.33478 2.99868,-0.0164 3.43388,0.3153 13.33712,10.1645 8.95481,8.90594 9.53507,9.56264 10.93611,12.37697 l 1.47955,2.97201 v 4.8157 4.81569 l -1.47955,2.97201 c -1.40104,2.81433 -1.9813,3.47103 -10.93611,12.37698 -7.84969,7.80685 -9.69635,9.46998 -10.86768,9.78761 -2.00281,0.54312 -3.31864,0.46792 -4.93889,-0.28222 z"
       id="path2375" /></g></svg>
