<?xml version="1.0" encoding="UTF-8" standalone="no"?>
<!-- Created with Inkscape (http://www.inkscape.org/) -->

<svg
   width="210mm"
   height="297mm"
   viewBox="0 0 210 297"
   version="1.1"
   id="svg5"
   xml:space="preserve"
   inkscape:version="1.2-rc (6364d40632, 2022-05-08)"
   sodipodi:docname="panko.svg"
   xmlns:inkscape="http://www.inkscape.org/namespaces/inkscape"
   xmlns:sodipodi="http://sodipodi.sourceforge.net/DTD/sodipodi-0.dtd"
   xmlns="http://www.w3.org/2000/svg"
   xmlns:svg="http://www.w3.org/2000/svg"><sodipodi:namedview
     id="namedview7"
     pagecolor="#ffffff"
     bordercolor="#999999"
     borderopacity="1"
     inkscape:showpageshadow="0"
     inkscape:pageopacity="0"
     inkscape:pagecheckerboard="0"
     inkscape:deskcolor="#d1d1d1"
     inkscape:document-units="mm"
     showgrid="false"
     inkscape:zoom="0.76969697"
     inkscape:cx="147.46063"
     inkscape:cy="318.95669"
     inkscape:window-width="1920"
     inkscape:window-height="1051"
     inkscape:window-x="-9"
     inkscape:window-y="-9"
     inkscape:window-maximized="1"
     inkscape:current-layer="layer1" /><defs
     id="defs2" /><g
     inkscape:label="Capa 1"
     inkscape:groupmode="layer"
     id="layer1"><path
       style="fill:#000000;stroke-width:0.264583"
       d="m 63.882768,153.3839 c -0.632143,-0.63214 -0.649433,-0.75574 -0.649433,-4.64224 0,-3.88649 0.01728,-4.01009 0.649433,-4.64223 0.642334,-0.64234 0.702484,-0.64943 5.504947,-0.64943 h 4.855519 l 0.46859,-2.4474 c 0.257726,-1.34607 0.533294,-2.7722 0.612376,-3.16918 l 0.143785,-0.72179 -22.455345,-0.072 -22.455345,-0.072 -1.08915,-0.58267 c -1.698377,-0.90859 -2.711838,-1.88325 -3.48792,-3.3544 l -0.714597,-1.3546 V 90.533334 49.390627 l 0.624422,-1.190625 c 0.852099,-1.624753 1.77861,-2.566163 3.344328,-3.398108 l 1.322917,-0.702933 H 90.75 150.94271 l 1.19062,0.624421 c 1.62475,0.8521 2.56616,1.778611 3.39811,3.344329 l 0.70293,1.322916 v 41.142707 41.142706 l -0.70293,1.32292 c -0.83195,1.56571 -1.77336,2.49223 -3.39811,3.34432 l -1.19062,0.62443 -22.45535,0.072 -22.45534,0.072 0.14378,0.72179 c 0.0791,0.39698 0.35465,1.82311 0.61238,3.16918 l 0.46859,2.4474 h 4.85552 c 4.80246,0 4.86261,0.007 5.50494,0.64943 0.63214,0.63214 0.64944,0.75574 0.64944,4.64223 0,3.8865 -0.0173,4.0101 -0.64944,4.64224 l -0.64943,0.64943 H 90.75 64.532198 Z m 50.150562,-4.64224 v -1.05833 H 90.75 67.466668 V 148.74166 149.8 H 90.75 114.03333 Z m -11.1913,-6.01927 c -0.0797,-0.40018 -0.35582,-1.82893 -0.61354,-3.175 L 101.7599,137.1 H 90.75 79.740101 l -0.468591,2.44739 c -0.257725,1.34607 -0.533818,2.77482 -0.613539,3.175 L 78.513021,143.45 H 90.75 102.98698 Z m 48.29404,-10.85226 0.86497,-0.86424 0.0877,-3.30295 0.0877,-3.30294 H 90.75 29.323513 l 0.08772,3.28678 c 0.08218,3.07916 0.129507,3.33169 0.749183,3.99769 0.363802,0.39099 0.899583,0.8098 1.190625,0.93069 0.291041,0.12089 27.167113,0.19716 59.724607,0.16951 l 59.195442,-0.0503 z M 87.1661,130.10057 c -0.409374,-0.40938 -0.649433,-0.95173 -0.649433,-1.46724 0,-0.5155 0.240059,-1.05786 0.649433,-1.46723 0.611444,-0.61145 0.821068,-0.64943 3.5839,-0.64943 2.762832,0 2.972456,0.038 3.5839,0.64943 0.409374,0.40937 0.649433,0.95173 0.649433,1.46723 0,0.51551 -0.240059,1.05786 -0.649433,1.46724 -0.611444,0.61144 -0.821068,0.64943 -3.5839,0.64943 -2.762832,0 -2.972456,-0.038 -3.5839,-0.64943 z m 64.90396,-44.986135 -0.069,-35.052233 -0.86499,-0.864954 -0.86498,-0.864954 H 90.75 31.228929 l -0.864984,0.864954 -0.864984,0.864954 -0.06902,35.052233 -0.06902,35.052235 H 90.75 152.13908 Z"
       id="path302" /><g
       style="fill:#ffb380"
       id="g878"
       transform="matrix(3.3072917,0,0,3.3072917,-32.426301,-36.236172)"><g
         id="Bread_2_"
         transform="matrix(0.21319353,0.05008707,-0.04883942,0.20788294,32.084905,28.531051)"
         style="fill:#ffb380">
	<path
   d="M 56.420273,2.8885663 C 47.712776,-4.4121339 29.685875,2.6942664 16.237675,18.729466 9.794776,26.412065 5.3206754,34.988266 3.6390758,42.876865 1.9100757,50.989166 3.3304756,57.445267 7.6385756,61.058567 c 2.3212996,1.9463 5.3096004,2.923798 8.7748994,2.923798 2.9653,0 6.2812,-0.715798 9.825701,-2.152298 7.475099,-3.030301 15.1401,-8.930703 21.581999,-16.612401 13.449699,-16.0361 17.307098,-35.0244 8.599098,-42.3290997 z M 46.288975,43.932568 c -6.235901,7.4365 -13.623593,13.1338 -20.8013,16.043899 -6.967291,2.825199 -12.849599,2.6651 -16.5639994,-0.451099 -3.7138,-3.1143 -4.8959999,-8.878003 -3.3285999,-16.231503 1.6148,-7.575199 5.9384993,-15.842798 12.1747993,-23.279299 9.484399,-11.3094993 21.1968,-18.0760997 29.808101,-18.0760997 2.956597,0 5.547898,0.7978001 7.557198,2.4834001 7.863209,6.5946996 3.895,24.3193006 -8.846199,39.5107016 z"
   id="path859"
   style="fill:#ffb380" />
	<path
   d="m 31.025383,47.388565 c -0.09681,-0.411697 -0.170408,-0.895698 -0.345709,-1.390697 -0.1791,-0.492302 -0.31929,-1.059102 -0.6031,-1.596302 -0.250999,-0.5541 -0.525098,-1.140099 -0.900098,-1.6941 -0.335902,-0.578998 -0.762902,-1.126598 -1.195401,-1.6838 -0.475099,-0.520599 -0.9512,-1.060699 -1.5018,-1.523399 -1.0698,-0.957802 -2.293499,-1.740799 -3.518799,-2.280701 -0.592201,-0.312801 -1.225,-0.4799 -1.795301,-0.685901 -0.592699,-0.150097 -1.1423,-0.3139 -1.671599,-0.372299 -0.521192,-0.0856 -0.9993,-0.143601 -1.435001,-0.1475 -0.429899,-0.0209 -0.800499,-0.0295 -1.0991,0.0016 -0.601599,0.0458 -0.947499,0.0903 -0.947499,0.0903 0,0 0.3268,0.121701 0.902499,0.3027 0.293401,0.0765 0.625909,0.2253 1.0074,0.3545 0.3811,0.123699 0.8001,0.316799 1.259001,0.498001 0.462799,0.1689 0.927507,0.4469 1.440699,0.657299 0.4873,0.278099 1.012599,0.5331 1.5221,0.856499 0.5289,0.289501 1.01771,0.6763 1.5404,1.0224 0.488309,0.394703 1.012599,0.758003 1.471099,1.201202 0.496602,0.400399 0.91721,0.879998 1.374001,1.312199 0.395208,0.4869 0.858801,0.909801 1.203899,1.405899 0.376801,0.4716 0.721802,0.945 1.03731,1.408401 0.335091,0.4515 0.576891,0.925499 0.858999,1.337399 0.262793,0.421501 0.462393,0.832203 0.675593,1.184803 0.209799,0.354298 0.3631,0.678097 0.5,0.943298 0.2745,0.530499 0.451898,0.836499 0.451898,0.836499 0,0 -0.0128,-0.343899 -0.0708,-0.950898 -0.0343,-0.3017 -0.0545,-0.6781 -0.160692,-1.087402 z"
   id="path861"
   style="fill:#000000" />
	<path
   d="m 40.111385,34.617966 c -0.15591,-0.5117 -0.279709,-1.096901 -0.538211,-1.6623 -0.234299,-0.5779 -0.505791,-1.182299 -0.866398,-1.7664 -0.324002,-0.6077 -0.765702,-1.1683 -1.201203,-1.7479 -0.479599,-0.5426 -0.969398,-1.0979 -1.5336,-1.576099 -1.103397,-0.981201 -2.369697,-1.778401 -3.64159,-2.302901 -0.620609,-0.2945 -1.271309,-0.458999 -1.864307,-0.644001 -0.617901,-0.121299 -1.184601,-0.268199 -1.730692,-0.299999 -0.53921,-0.053 -1.031609,-0.0778 -1.48111,-0.0523 -0.44189,0.0061 -0.822099,0.0326 -1.121799,0.0906 -0.607701,0.098 -0.958901,0.1886 -0.958901,0.1886 0,0 0.3216,0.1677 0.8911,0.400999 0.292301,0.103301 0.615301,0.287201 0.984709,0.443501 0.367493,0.153101 0.771892,0.3794 1.213001,0.5931 0.445791,0.1956 0.89349,0.490501 1.38159,0.7296 0.464409,0.299201 0.972,0.5569 1.4531,0.898501 0.500201,0.306499 0.975001,0.6789 1.474501,1.024999 0.465809,0.3928 0.972698,0.7445 1.4142,1.1764 0.483002,0.384901 0.889801,0.849401 1.342098,1.259401 0.392201,0.4646 0.841103,0.874498 1.198101,1.341898 0.3913,0.441402 0.738701,0.8965 1.070999,1.336201 0.360409,0.423099 0.618603,0.878799 0.924,1.271202 0.293003,0.399299 0.524002,0.792 0.765503,1.129997 0.235798,0.340603 0.422398,0.651402 0.584698,0.907402 0.324402,0.5126 0.54721,0.8079 0.54721,0.8079 0,0 0.03279,-0.354702 0.02449,-0.979401 -0.0087,-0.311001 0.0045,-0.700298 -0.0758,-1.123501 -0.0682,-0.4263 -0.110691,-0.928299 -0.255688,-1.445499 z"
   id="path863"
   style="fill:#000000" />
	<path
   d="m 48.789173,27.151667 c -0.0967,-0.411702 -0.170399,-0.895701 -0.345699,-1.390702 -0.178898,-0.492298 -0.319199,-1.059099 -0.603089,-1.596399 -0.250911,-0.553999 -0.52491,-1.140101 -0.900112,-1.694 -0.3358,-0.578999 -0.76289,-1.126601 -1.1954,-1.683899 -0.474999,-0.5205 -0.951,-1.060702 -1.501698,-1.5233 -1.0699,-0.957901 -2.293602,-1.740801 -3.518901,-2.2808 -0.592099,-0.312701 -1.224999,-0.479801 -1.7953,-0.6859 -0.592701,-0.150001 -1.1423,-0.313801 -1.671589,-0.372301 -0.521209,-0.0856 -0.99921,-0.143499 -1.435001,-0.1474 -0.42981,-0.0209 -0.800511,-0.0296 -1.098999,0.0014 -0.601711,0.0459 -0.94751,0.0905 -0.94751,0.0905 0,0 0.326801,0.1217 0.902401,0.3027 0.293499,0.0764 0.626106,0.225201 1.0075,0.3545 0.381099,0.123701 0.799999,0.316801 1.259098,0.4979 0.4627,0.169 0.927402,0.446901 1.440601,0.6574 0.487198,0.278 1.0126,0.5331 1.522099,0.856399 0.528999,0.289601 1.0177,0.676401 1.540302,1.022501 0.488399,0.3946 1.012699,0.757901 1.4711,1.201201 0.496597,0.400299 0.917297,0.879999 1.3741,1.312198 0.395198,0.486802 0.858799,0.909802 1.2038,1.405901 0.376899,0.471501 0.721798,0.944901 1.0373,1.408301 0.335098,0.451599 0.5769,0.9256 0.858997,1.337398 0.262802,0.421502 0.462502,0.832201 0.675701,1.184801 0.209801,0.354399 0.363102,0.678101 0.499901,0.9434 0.274498,0.5305 0.451901,0.836401 0.451901,0.836401 0,0 -0.0127,-0.343901 -0.0708,-0.9508 -0.0343,-0.301901 -0.05449,-0.678101 -0.160702,-1.0874 z"
   id="path865"
   style="fill:#000000" />
</g></g></g></svg>
